# xmcd
#
# Track frame offsets:
#	150
#	9402
#	24800
#	45730
#	49477
#	69455
#	75870
#	97555
#	115192
#	134515
#	154825
#	175292
#	193857
#	214252
#	232340
#	250075
#	274255
#	290545
#	301160
#	313917
#	330925
#
# Disc length: 4651 seconds
#
# Revision: 0
# Processed by: cddbd v1.5.2PL0 Copyright (c) Steve Scherf et al.
# Submitted via: EasyCDDAExtractor 11.0.2.1
#
DISCID=21122915
DTITLE=Marquise Porter - The Book Donald Didn't Finish
DYEAR=1900
DGENRE=Rap
TTITLE0=Intro
TTITLE1=Watery
TTITLE2=Gunz Up
TTITLE3=Get The Phone (Interlude)
TTITLE4=Gotta Go (Feat. Meko Starr)
TTITLE5=Gotta Go (Interlude)
TTITLE6=Every Bitch
TTITLE7=Another Episode
TTITLE8=Pull The Shades Down
TTITLE9=What Eye Like
TTITLE10=Bustone
TTITLE11=City Heat (Anthem)
TTITLE12=2 The Top (Feat. MC Breed)
TTITLE13=Fuck The Trial (Feat. Scooter Win)
TTITLE14=Who You Grimmin Don?
TTITLE15=Won't Break (Feat. W.C.V.)
TTITLE16=City2City
TTITLE17=Return The Favor Part 1
TTITLE18=Bang Wit It
TTITLE19=Uno Dos
TTITLE20=Burie Me
EXTD=
EXTT0=
EXTT1=
EXTT2=
EXTT3=
EXTT4=
EXTT5=
EXTT6=
EXTT7=
EXTT8=
EXTT9=
EXTT10=
EXTT11=
EXTT12=
EXTT13=
EXTT14=
EXTT15=
EXTT16=
EXTT17=
EXTT18=
EXTT19=
EXTT20=
PLAYORDER=
